# xmcd
#
# Track frame offsets:
#	150
#	11806
#	24432
#	38931
#	52154
#	67891
#	77919
#	91636
#	106050
#	125736
#	135970
#	147996
#	163962
#	175891
#	187851
#	201101
#	218116
#	231599
#	244013
#	256939
#
# Disc length: 3622
#
# Revision: 3
# Processed by: cddbd v1.5.1PL0 Copyright (c) Steve Scherf et al.
# Submitted via: audiograbber 1.82.02
# Normalized: r2:TDELIM( - )
#
DISCID=160e2414
DTITLE=Various Artist - Ekte Country CD1
DYEAR=2003
DGENRE=Country
TTITLE0=Johnny Cach - Ring of Fire
TTITLE1=George Jones and Johnny Paycheck - Proud Mary
TTITLE2=Glenn Campbell - Rhinestone Cowboy
TTITLE3=Lynn Andersson - Rose Garden
TTITLE4=Kenny Rogers - The Gambler
TTITLE5=Billy Joe Shaver - The Devil Made Me Do It The First Time
TTITLE6=Highwayman - Highwayman
TTITLE7=Jeannie C. Riley - Harper Valley P.T.A.
TTITLE8=Marty Robbins - El Paso
TTITLE9=Kris Kristofferson - Hel Me Make It Through The Night
TTITLE10=Tammy Wynette - Stand By Your Man
TTITLE11=Joe South - Games People Play
TTITLE12=Charlie Rich - The Most Beautiful Girl In The World
TTITLE13=Guy Mitchell - Heartaches By The Number
TTITLE14=Tanya Tucker - Delta Dawn
TTITLE15=Ray Price - For The Good Times
TTITLE16=Loretta Lynn - Coal Miners Daughter
TTITLE17=Lefty Frizzell - I love You A Thousand Ways
TTITLE18=Dolly Parton Tammy Wynett Loretta Lynn - It Wasnt God Who Made The Honky Tonk Angels
TTITLE19=Olivia Newton John - Take me Home Country roads
EXTD=
EXTT0=
EXTT1=
EXTT2=
EXTT3=
EXTT4=
EXTT5=
EXTT6=
EXTT7=
EXTT8=
EXTT9=
EXTT10=
EXTT11=
EXTT12=
EXTT13=
EXTT14=
EXTT15=
EXTT16=
EXTT17=
EXTT18=
EXTT19=
PLAYORDER=
